<svg width="48" height="48" viewBox="0 0 48 48" fill="none" xmlns="http://www.w3.org/2000/svg">
<g filter="url(#filter0_dd_2_244)">
<rect x="4" width="40" height="40" rx="20" fill="#FEFEFE"/>
<path d="M31.5851 14.1834C32.6395 15.9336 33.0901 17.9816 32.8675 20.0127V21.1786C32.8662 22.4061 33.1878 23.6123 33.8002 24.6761" stroke="#9747FF" stroke-width="2" stroke-linecap="round" stroke-linejoin="round"/>
<path d="M18.8772 18.8468C18.8772 17.61 19.3685 16.4239 20.2431 15.5493C21.1177 14.6747 22.3038 14.1834 23.5406 14.1834C24.7775 14.1834 25.9636 14.6747 26.8382 15.5493C27.7127 16.4239 28.2041 17.61 28.2041 18.8468V20.0127C28.2041 22.5353 29.0222 24.9898 30.5358 27.0079" stroke="#9747FF" stroke-width="2" stroke-linecap="round" stroke-linejoin="round"/>
<path d="M23.5407 18.8468V21.1786C23.5369 24.5122 24.5541 27.7671 26.4553 30.5054" stroke="#9747FF" stroke-width="2" stroke-linecap="round" stroke-linejoin="round"/>
<path d="M18.8772 23.5103C19.1625 25.9467 19.8728 28.3143 20.9757 30.5054" stroke="#9747FF" stroke-width="2" stroke-linecap="round" stroke-linejoin="round"/>
<path d="M15.2631 28.1737C14.4765 25.5276 14.1222 22.7718 14.2139 20.0127V18.8468C14.2094 17.2075 14.6371 15.5959 15.4539 14.1745C16.2707 12.7531 17.4477 11.5721 18.8663 10.7505C20.2849 9.92884 21.895 9.49565 23.5344 9.49454C25.1737 9.49343 26.7844 9.92443 28.2042 10.7441" stroke="#9747FF" stroke-width="2" stroke-linecap="round" stroke-linejoin="round"/>
</g>
<defs>
<filter id="filter0_dd_2_244" x="0" y="0" width="48" height="48" filterUnits="userSpaceOnUse" color-interpolation-filters="sRGB">
<feFlood flood-opacity="0" result="BackgroundImageFix"/>
<feColorMatrix in="SourceAlpha" type="matrix" values="0 0 0 0 0 0 0 0 0 0 0 0 0 0 0 0 0 0 127 0" result="hardAlpha"/>
<feOffset dy="2"/>
<feGaussianBlur stdDeviation="1"/>
<feComposite in2="hardAlpha" operator="out"/>
<feColorMatrix type="matrix" values="0 0 0 0 0 0 0 0 0 0 0 0 0 0 0 0 0 0 0.1 0"/>
<feBlend mode="normal" in2="BackgroundImageFix" result="effect1_dropShadow_2_244"/>
<feColorMatrix in="SourceAlpha" type="matrix" values="0 0 0 0 0 0 0 0 0 0 0 0 0 0 0 0 0 0 127 0" result="hardAlpha"/>
<feOffset dy="4"/>
<feGaussianBlur stdDeviation="2"/>
<feComposite in2="hardAlpha" operator="out"/>
<feColorMatrix type="matrix" values="0 0 0 0 0 0 0 0 0 0 0 0 0 0 0 0 0 0 0.25 0"/>
<feBlend mode="normal" in2="effect1_dropShadow_2_244" result="effect2_dropShadow_2_244"/>
<feBlend mode="normal" in="SourceGraphic" in2="effect2_dropShadow_2_244" result="shape"/>
</filter>
</defs>
</svg>
